<svg id="Phone" xmlns="http://www.w3.org/2000/svg" width="38.12mm" height="38.2mm" viewBox="0 0 108.04 108.27"><defs><style>.cls-1{fill:#333;}</style></defs><path class="cls-1" d="M106.43,117.7C97.15,110.06,91,100.64,87.69,95.28L85.26,90.7c.85-.91,7.33-7.85,10.14-11.62,3.53-4.73-1.59-9-1.59-9s-14.4-14.4-17.68-17.26a7.07,7.07,0,0,0-7.06-1.27c-6.9,4.46-14,8.33-14.48,27C54.57,96,67.82,114,82.14,127.89c14.35,15.74,34,31.51,53.09,31.49,18.63-.43,22.51-7.58,27-14.47a7.07,7.07,0,0,0-1.27-7.06c-2.86-3.29-17.26-17.69-17.26-17.69s-4.27-5.12-9-1.59c-3.52,2.64-9.85,8.5-11.38,9.92C123.28,128.49,112.7,122.85,106.43,117.7Z" transform="translate(-54.59 -51.11)"/></svg>
