<svg version="1.1" xmlns="http://www.w3.org/2000/svg" xmlns:xlink="http://www.w3.org/1999/xlink" width="90" height="21" viewBox="0 0 90 21">
<path id="btn-prod-1-activ" d="M87.883,3.698 L87.883,5.084 L78.179,5.084 L78.179,3.698 L76.463,3.698 L76.463,2.730 L71.821,8.517 C71.821,8.517 74.395,8.517 74.395,8.517 C74.571,8.517 74.659,8.407 74.659,8.187 C74.659,8.187 74.659,6.118 74.659,6.118 L76.375,6.118 C76.375,6.118 76.375,8.957 76.375,8.957 C76.375,9.243 76.243,9.529 76.023,9.815 C75.737,10.167 75.385,10.321 74.989,10.321 C74.989,10.321 73.867,10.321 73.867,10.321 L73.867,20.134 L72.151,20.134 L72.151,10.321 L69.488,10.321 C69.488,10.321 69.488,8.957 69.488,8.957 C69.488,8.715 69.686,8.363 70.126,7.923 C70.126,7.923 72.327,5.172 72.327,5.172 L69.576,5.172 C69.576,5.172 69.576,3.698 69.576,3.698 C69.576,3.566 69.620,3.434 69.752,3.302 C69.752,3.302 72.239,0.001 72.239,0.001 L74.395,0.001 L71.732,3.456 L73.713,3.456 L75.165,1.652 L77.321,1.652 L77.057,1.982 C77.057,1.982 77.739,1.982 77.739,1.982 C77.959,1.982 78.201,1.872 78.421,1.608 C78.421,1.608 79.632,0.529 79.632,0.529 L86.343,0.529 C86.343,0.529 87.487,1.608 87.487,1.608 C87.685,1.872 87.905,1.982 88.147,1.982 C88.147,1.982 89.269,1.982 89.269,1.982 L89.269,3.698 L87.883,3.698 zM86.519,3.368 C86.519,3.368 85.220,2.246 85.220,2.246 L80.754,2.246 C80.754,2.246 79.412,3.368 79.412,3.368 C79.368,3.412 79.324,3.456 79.280,3.456 C79.280,3.456 86.651,3.456 86.651,3.456 C86.585,3.434 86.541,3.412 86.519,3.368 zM70.170,11.443 L71.821,11.443 C71.821,11.443 71.160,17.428 71.160,17.428 C70.984,18.814 70.588,19.518 69.928,19.518 C69.928,19.518 69.158,19.518 69.158,19.518 L69.158,17.450 C69.158,17.450 69.400,17.450 69.400,17.450 C69.532,17.450 69.642,17.120 69.730,16.438 C69.730,16.438 70.170,11.443 70.170,11.443 zM63.507,19.606 C63.507,19.606 59.634,19.606 59.634,19.606 L59.634,17.538 C59.634,17.538 62.032,17.538 62.032,17.538 C62.362,17.538 62.583,17.384 62.693,17.032 C62.693,17.032 63.419,14.017 63.419,14.017 L65.817,14.017 C65.817,14.017 65.003,18.374 65.003,18.374 C64.827,19.188 64.321,19.606 63.507,19.606 zM63.243,13.071 C63.243,13.071 59.634,13.071 59.634,13.071 L59.634,11.003 C59.634,11.003 61.768,11.003 61.768,11.003 C62.120,11.003 62.362,10.849 62.472,10.497 C62.472,10.497 63.243,7.394 63.243,7.394 L65.641,7.394 C65.641,7.394 64.805,11.839 64.805,11.839 C64.607,12.675 64.079,13.071 63.243,13.071 zM62.803,6.536 C62.803,6.536 59.634,6.536 59.634,6.536 L59.634,4.490 C59.634,4.490 61.350,4.490 61.350,4.490 C61.746,4.490 62.010,4.292 62.142,3.896 C62.142,3.896 62.979,0.353 62.979,0.353 L65.377,0.353 C65.377,0.353 64.475,5.194 64.475,5.194 C64.277,6.096 63.727,6.536 62.803,6.536 zM56.796,3.104 C56.796,3.104 46.388,3.104 46.388,3.104 L46.388,1.300 C46.388,1.300 55.938,1.300 55.938,1.300 C56.246,1.300 56.488,0.970 56.620,0.265 C56.620,0.265 58.864,0.265 58.864,0.265 C58.776,1.322 58.578,2.070 58.226,2.510 C57.874,2.906 57.412,3.104 56.796,3.104 zM48.787,6.030 C48.875,6.426 49.095,6.624 49.403,6.624 C49.403,6.624 50.173,6.624 50.173,6.624 L50.173,8.253 C50.173,8.253 48.456,8.253 48.456,8.253 C48.016,8.253 47.642,7.923 47.356,7.218 C47.356,7.218 46.212,4.050 46.212,4.050 L48.280,4.050 C48.280,4.050 48.787,6.030 48.787,6.030 zM31.803,18.066 L33.894,18.066 L33.344,16.680 L35.500,16.680 L36.050,18.066 L38.448,18.066 L39.108,16.680 L41.265,16.680 L40.605,18.066 L42.981,18.066 L42.981,19.782 L31.803,19.782 L31.803,18.066 zM41.507,16.086 C41.507,16.086 32.155,16.086 32.155,16.086 L32.155,11.795 L42.453,11.795 C42.453,11.795 42.453,14.964 42.453,14.964 C42.453,15.712 42.123,16.086 41.507,16.086 zM40.473,13.335 L34.114,13.335 L34.114,14.546 C34.114,14.546 40.319,14.546 40.319,14.546 C40.407,14.546 40.473,14.479 40.473,14.347 C40.473,14.347 40.473,13.335 40.473,13.335 zM31.891,9.199 L42.893,9.199 L42.893,10.937 L31.891,10.937 L31.891,9.199 zM41.177,8.341 C41.177,8.341 32.067,8.341 32.067,8.341 L32.067,1.212 L34.972,1.212 L34.972,0.177 L36.776,0.177 L36.776,1.212 L37.810,1.212 L37.810,0.177 L39.615,0.177 L39.615,1.212 L42.541,1.212 C42.541,1.212 42.541,6.976 42.541,6.976 C42.541,7.901 42.079,8.341 41.177,8.341 zM34.972,2.840 L34.026,2.840 L34.026,3.962 L34.972,3.962 L34.972,2.840 zM34.972,5.502 L34.026,5.502 L34.026,6.712 L34.972,6.712 L34.972,5.502 zM37.810,2.840 L36.776,2.840 L36.776,3.962 L37.810,3.962 L37.810,2.840 zM37.810,5.502 L36.776,5.502 L36.776,6.712 L37.810,6.712 L37.810,5.502 zM40.561,2.840 L39.615,2.840 L39.615,3.962 L40.561,3.962 L40.561,2.840 zM40.561,5.502 L39.615,5.502 L39.615,6.712 C39.615,6.712 40.143,6.712 40.143,6.712 C40.407,6.712 40.561,6.558 40.561,6.206 C40.561,6.206 40.561,5.502 40.561,5.502 zM31.033,18.836 C31.033,19.452 30.681,19.782 29.999,19.782 C29.999,19.782 27.843,19.782 27.843,19.782 L27.843,18.242 C27.843,18.242 28.965,18.242 28.965,18.242 C29.141,18.242 29.229,18.110 29.229,17.890 C29.229,17.890 29.229,16.856 29.229,16.856 L25.863,16.856 L25.863,19.958 L24.058,19.958 L24.058,9.903 L23.376,9.903 L23.376,6.536 L23.904,6.536 L23.904,0.706 L31.275,0.706 L31.275,6.536 L31.539,6.536 L31.539,9.903 L31.033,9.903 C31.033,9.903 31.033,18.836 31.033,18.836 zM25.863,15.492 L29.229,15.492 L29.229,13.929 L25.863,13.929 L25.863,15.492 zM25.863,12.565 L29.229,12.565 L29.229,11.179 L25.863,11.179 L25.863,12.565 zM29.559,2.422 L25.621,2.422 L25.621,6.536 L26.809,6.536 L26.809,3.786 L29.559,3.786 L29.559,2.422 zM29.559,5.172 L28.371,5.172 L28.371,6.536 L29.559,6.536 L29.559,5.172 zM29.735,8.099 L25.180,8.099 L25.180,9.551 L29.735,9.551 L29.735,8.099 zM13.940,18.154 C13.940,18.154 9.980,5.722 9.980,5.722 C9.980,5.722 6.459,17.230 6.459,17.230 C6.063,18.638 5.381,19.342 4.413,19.342 C4.413,19.342 0.100,19.342 0.100,19.342 L0.100,17.032 C0.100,17.032 2.939,17.032 2.939,17.032 C3.247,17.032 3.467,16.790 3.643,16.284 C3.643,16.284 8.879,0.001 8.879,0.001 L11.718,0.001 L10.112,5.260 L12.488,5.260 C12.488,5.260 16.184,16.592 16.184,16.592 C16.250,17.010 16.449,17.208 16.779,17.208 C16.779,17.208 19.881,17.208 19.881,17.208 L19.881,19.430 C19.881,19.430 15.502,19.430 15.502,19.430 C14.666,19.430 14.160,18.990 13.940,18.154 zM47.422,16.922 C47.422,16.922 48.104,12.983 48.104,12.983 L50.261,12.983 C50.261,12.983 49.337,17.956 49.337,17.956 C49.095,19.100 48.522,19.694 47.598,19.694 C47.598,19.694 46.212,19.694 46.212,19.694 L46.212,17.714 C46.212,17.714 46.916,17.714 46.916,17.714 C47.092,17.714 47.268,17.450 47.422,16.922 zM51.339,6.756 C51.339,6.756 50.349,4.050 50.349,4.050 L52.417,4.050 C52.417,4.050 52.791,5.568 52.791,5.568 C52.879,5.876 53.033,6.030 53.275,6.030 C53.275,6.030 53.957,6.030 53.957,6.030 L53.957,7.659 C53.957,7.659 52.329,7.659 52.329,7.659 C51.933,7.659 51.603,7.372 51.339,6.756 zM56.202,8.341 C56.202,8.341 54.727,8.341 54.727,8.341 L54.727,6.624 C54.727,6.624 55.409,6.624 55.409,6.624 C55.674,6.624 55.872,6.404 56.004,5.964 C56.004,5.964 56.620,3.786 56.620,3.786 L58.688,3.786 C58.688,3.786 57.478,7.218 57.478,7.218 C57.214,7.967 56.796,8.341 56.202,8.341 zM46.476,9.727 L51.471,9.727 L51.471,8.099 L53.693,8.099 L53.693,9.727 L58.600,9.727 L58.600,11.619 L53.693,11.619 L53.693,19.870 L51.471,19.870 L51.471,11.619 L46.476,11.619 L46.476,9.727 zM57.742,17.208 C57.786,17.560 57.962,17.714 58.248,17.714 C58.248,17.714 58.776,17.714 58.776,17.714 L58.776,19.694 C58.776,19.694 57.214,19.694 57.214,19.694 C56.532,19.694 56.114,19.320 55.938,18.572 C55.938,18.572 54.991,12.983 54.991,12.983 L57.126,12.983 C57.126,12.983 57.742,17.208 57.742,17.208 zM76.463,16.680 C76.507,17.098 76.617,17.296 76.793,17.296 C76.793,17.296 77.233,17.296 77.233,17.296 L77.233,19.100 C77.233,19.100 75.935,19.100 75.935,19.100 C75.319,19.100 74.989,18.572 74.901,17.538 C74.901,17.538 74.307,11.531 74.307,11.531 L75.847,11.531 C75.847,11.531 76.463,16.680 76.463,16.680 zM88.565,11.003 C88.565,11.751 88.081,12.125 87.113,12.125 C87.113,12.125 77.321,12.125 77.321,12.125 L77.321,6.030 L88.565,6.030 C88.565,6.030 88.565,11.003 88.565,11.003 zM82.052,7.570 L79.302,7.570 L79.302,10.585 L82.052,10.585 L82.052,7.570 zM86.519,7.570 L83.856,7.570 L83.856,10.585 C83.856,10.585 85.991,10.585 85.991,10.585 C86.343,10.585 86.519,10.453 86.519,10.145 C86.519,10.145 86.519,7.570 86.519,7.570 zM84.098,9.991 L84.802,8.341 L86.255,8.341 L85.572,9.991 L84.098,9.991 zM81.876,9.991 L80.402,9.991 L79.720,8.341 L81.172,8.341 L81.876,9.991 zM88.147,18.484 C88.147,19.342 87.641,19.782 86.673,19.782 C86.673,19.782 77.739,19.782 77.739,19.782 L77.739,12.983 L88.147,12.983 C88.147,12.983 88.147,18.484 88.147,18.484 zM86.079,14.546 L79.808,14.546 L79.808,15.580 L86.079,15.580 L86.079,14.546 zM86.079,17.120 L79.808,17.120 L79.808,18.242 C79.808,18.242 85.661,18.242 85.661,18.242 C85.925,18.242 86.079,18.066 86.079,17.714 C86.079,17.714 86.079,17.120 86.079,17.120 z" fill="#ED1C24" />
</svg>
