<svg version="1.1" xmlns="http://www.w3.org/2000/svg" xmlns:xlink="http://www.w3.org/1999/xlink" width="42" height="20" viewBox="0 0 42 20">
<path id="btn-prod-5-norma" d="M41.981,17.450 L41.981,19.518 L32.014,19.518 L32.014,17.802 C32.014,17.802 30.891,17.802 30.891,17.802 C30.143,17.802 29.703,17.362 29.593,16.438 C29.593,16.438 29.263,12.829 29.263,12.829 L31.221,12.829 C31.221,12.829 31.574,15.646 31.574,15.646 C31.618,15.998 31.750,16.174 32.014,16.174 C32.014,16.174 32.696,16.174 32.696,16.174 L32.696,17.450 L35.710,17.450 L35.710,2.928 L32.256,2.928 L32.256,0.948 L41.541,0.948 L41.541,2.928 L37.932,2.928 L37.932,17.450 L41.981,17.450 zM30.209,11.883 C30.209,11.883 28.405,11.883 28.405,11.883 L28.405,19.958 L26.337,19.958 L26.337,11.883 L22.640,11.883 C22.640,11.883 22.640,10.497 22.640,10.497 C22.640,10.255 22.882,9.903 23.366,9.463 C23.366,9.463 26.183,6.382 26.183,6.382 L22.728,6.382 C22.728,6.382 22.728,4.820 22.728,4.820 C22.728,4.666 22.816,4.490 22.992,4.314 C22.992,4.314 26.755,0.177 26.755,0.177 L29.505,0.177 L25.479,4.490 L27.899,4.490 L29.175,3.104 L31.750,3.104 L25.567,10.079 C25.567,10.079 29.505,10.079 29.505,10.079 C29.725,10.079 29.857,9.969 29.857,9.727 C29.857,9.727 29.857,7.747 29.857,7.747 L31.838,7.747 C31.838,7.747 31.838,10.497 31.838,10.497 C31.838,10.805 31.684,11.091 31.419,11.355 C31.067,11.707 30.671,11.883 30.209,11.883 zM23.058,17.164 C23.058,17.164 23.410,12.829 23.410,12.829 L25.479,12.829 C25.479,12.829 24.973,18.330 24.973,18.330 C24.929,18.682 24.753,18.968 24.466,19.144 C24.136,19.320 23.762,19.430 23.322,19.430 C23.322,19.430 22.112,19.430 22.112,19.430 L22.112,17.538 C22.112,17.538 22.728,17.538 22.728,17.538 C22.926,17.538 23.036,17.428 23.058,17.164 zM15.955,18.924 C15.955,18.924 0.310,18.924 0.310,18.924 L0.310,1.212 L17.759,1.212 C17.759,1.212 17.759,17.296 17.759,17.296 C17.759,18.374 17.143,18.924 15.955,18.924 zM15.361,3.456 L2.709,3.456 L2.709,16.680 C2.709,16.680 14.656,16.680 14.656,16.680 C15.118,16.680 15.361,16.482 15.361,16.086 C15.361,16.086 15.361,3.456 15.361,3.456 z" fill="#222222" />
</svg>
