<svg version="1.1" xmlns="http://www.w3.org/2000/svg" xmlns:xlink="http://www.w3.org/1999/xlink" width="114" height="21" viewBox="0 0 114 21">
<path id="btn-prod-4-norma" d="M113.523,17.032 L113.523,18.748 L104.678,18.748 L104.678,20.046 L102.279,20.046 L102.279,18.748 L93.412,18.748 L93.412,17.032 L102.279,17.032 L102.279,15.734 L94.204,15.734 L94.204,14.193 L102.279,14.193 L102.279,13.071 L94.534,13.071 L94.534,11.531 L102.279,11.531 L102.279,10.409 L93.412,10.409 L93.412,8.693 L102.279,8.693 L102.279,7.394 L94.534,7.394 L94.534,5.854 L102.279,5.854 L102.279,4.908 C102.279,4.908 100.563,4.908 100.563,4.908 C100.123,4.908 99.749,4.600 99.441,3.984 C99.441,3.984 98.671,2.070 98.671,2.070 C98.671,2.070 97.901,2.070 97.901,2.070 C97.681,2.070 97.527,2.224 97.439,2.488 C96.845,3.588 96.559,4.116 96.559,4.116 C96.317,4.644 95.832,4.908 95.084,4.908 C95.084,4.908 93.676,4.908 93.676,4.908 C93.676,4.908 93.676,3.192 93.676,3.192 C94.204,3.192 94.556,2.972 94.754,2.532 C94.754,2.532 95.062,1.938 95.678,0.706 C95.766,0.485 95.987,0.353 96.339,0.353 C96.339,0.353 103.050,0.353 103.050,0.353 L103.050,2.070 L101.091,2.070 C101.091,2.070 101.289,2.862 101.289,2.862 C101.377,3.214 101.531,3.368 101.751,3.368 C101.751,3.368 103.050,3.368 103.050,3.368 L103.050,4.732 L103.314,4.732 C103.314,4.732 103.314,3.192 103.314,3.192 C103.842,3.192 104.216,2.972 104.414,2.532 C104.414,2.532 104.722,1.938 105.382,0.706 C105.470,0.485 105.690,0.353 106.064,0.353 C106.064,0.353 113.105,0.353 113.105,0.353 L113.105,2.070 L110.883,2.070 C110.883,2.070 111.169,2.994 111.169,2.994 C111.257,3.368 111.477,3.544 111.807,3.544 C111.807,3.544 113.193,3.544 113.193,3.544 L113.193,5.084 C113.193,5.084 110.619,5.084 110.619,5.084 C110.091,5.084 109.672,4.776 109.342,4.116 C109.342,4.116 108.418,2.070 108.418,2.070 C108.418,2.070 107.604,2.070 107.604,2.070 C107.384,2.070 107.230,2.224 107.120,2.488 C106.548,3.588 106.262,4.116 106.262,4.116 C105.998,4.644 105.492,4.908 104.744,4.908 C104.744,4.908 104.678,4.908 104.678,4.908 L104.678,5.854 L112.159,5.854 L112.159,8.693 L113.523,8.693 L113.523,10.409 L112.159,10.409 C112.159,10.409 112.159,11.707 112.159,11.707 C112.159,12.631 111.433,13.071 110.003,13.071 C110.003,13.071 104.678,13.071 104.678,13.071 L104.678,14.193 L112.753,14.193 L112.753,15.734 L104.678,15.734 L104.678,17.032 L113.523,17.032 zM109.761,7.394 L104.678,7.394 L104.678,8.693 L109.761,8.693 L109.761,7.394 zM109.144,11.531 C109.540,11.531 109.761,11.421 109.761,11.179 C109.761,11.179 109.761,10.409 109.761,10.409 L104.678,10.409 L104.678,11.531 C104.678,11.531 109.144,11.531 109.144,11.531 zM73.327,19.100 C72.490,19.540 71.456,19.782 70.224,19.782 C70.224,19.782 70.224,17.802 70.224,17.802 C71.192,17.714 71.698,17.516 71.698,17.208 C71.698,17.208 71.698,12.653 71.698,12.653 L70.400,12.653 L70.400,10.585 L73.767,10.585 C73.767,10.585 73.767,16.262 73.767,16.262 C74.141,17.230 75.021,17.714 76.429,17.714 C76.429,17.714 90.181,17.714 90.181,17.714 L90.181,19.606 C90.181,19.606 75.571,19.606 75.571,19.606 C75.021,19.606 74.273,19.430 73.327,19.100 zM86.198,15.250 C86.198,15.250 85.010,12.477 85.010,12.477 L87.519,12.477 C87.519,12.477 87.981,13.995 87.981,13.995 C88.069,14.303 88.245,14.457 88.553,14.457 C88.553,14.457 90.005,14.457 90.005,14.457 L90.005,16.174 C90.005,16.174 87.343,16.174 87.343,16.174 C86.881,16.174 86.506,15.866 86.198,15.250 zM86.330,4.094 C86.330,4.094 84.856,2.510 84.856,2.510 L79.597,2.510 C79.597,2.510 78.057,4.094 78.057,4.094 C77.749,4.424 77.375,4.578 76.935,4.578 C76.935,4.578 74.713,4.578 74.713,4.578 L74.713,2.598 C74.713,2.598 76.165,2.598 76.165,2.598 C76.429,2.598 76.693,2.422 76.957,2.048 C76.957,2.048 78.409,0.529 78.409,0.529 L86.044,0.529 C86.044,0.529 87.431,2.048 87.431,2.048 C87.651,2.422 87.915,2.598 88.201,2.598 C88.201,2.598 89.917,2.598 89.917,2.598 L89.917,4.578 C89.917,4.578 87.431,4.578 87.431,4.578 C86.991,4.578 86.617,4.424 86.330,4.094 zM76.847,16.174 C76.847,16.174 74.625,16.174 74.625,16.174 L74.625,14.457 C74.625,14.457 75.901,14.457 75.901,14.457 C76.143,14.457 76.319,14.303 76.451,13.995 C76.451,13.995 77.023,12.477 77.023,12.477 L79.509,12.477 C79.509,12.477 78.233,15.250 78.233,15.250 C77.969,15.866 77.507,16.174 76.847,16.174 zM82.172,16.592 C82.172,16.592 79.355,16.592 79.355,16.592 L79.355,14.700 C79.355,14.700 80.808,14.700 80.808,14.700 C81.028,14.700 81.160,14.590 81.160,14.369 C81.160,14.369 81.160,11.531 81.160,11.531 L74.867,11.531 L74.867,9.551 L81.160,9.551 L81.160,7.570 L75.483,7.570 L75.483,5.590 L89.147,5.590 L89.147,7.570 L83.558,7.570 L83.558,9.551 L89.741,9.551 L89.741,11.531 L83.558,11.531 C83.558,11.531 83.558,15.492 83.558,15.492 C83.558,16.240 83.096,16.592 82.172,16.592 zM71.258,5.348 L73.679,5.348 L73.679,9.045 L71.258,9.045 L71.258,5.348 zM71.258,0.441 L73.679,0.441 L73.679,4.226 L71.258,4.226 L71.258,0.441 zM64.507,19.430 C64.507,19.430 60.810,19.430 60.810,19.430 L60.810,17.538 C60.810,17.538 63.318,17.538 63.318,17.538 C63.869,17.538 64.155,17.494 64.155,17.384 C64.155,17.384 64.155,14.105 64.155,14.105 L58.830,14.105 L58.830,19.518 L56.321,19.518 L56.321,14.105 L51.173,14.105 C51.173,14.105 51.173,17.450 51.173,17.450 C51.173,19.056 50.359,19.870 48.774,19.870 C48.774,19.870 47.476,19.870 47.476,19.870 L47.476,17.978 C47.476,17.978 48.246,17.978 48.246,17.978 C48.598,17.978 48.774,17.802 48.774,17.450 C48.774,17.450 48.774,0.617 48.774,0.617 L54.693,0.617 L66.553,0.617 C66.553,0.617 66.553,17.802 66.553,17.802 C66.553,18.880 65.871,19.430 64.507,19.430 zM56.321,2.598 L51.173,2.598 L51.173,6.294 L56.321,6.294 L56.321,2.598 zM56.321,8.253 L51.173,8.253 L51.173,12.125 L56.321,12.125 L56.321,8.253 zM64.155,2.598 L58.830,2.598 L58.830,6.294 L64.155,6.294 L64.155,2.598 zM64.155,8.253 L58.830,8.253 L58.830,12.125 L64.155,12.125 L64.155,8.253 zM41.253,17.516 C41.253,17.516 40.108,11.003 40.108,11.003 L42.353,11.003 C42.353,11.003 43.145,16.416 43.145,16.416 C43.233,17.120 43.409,17.450 43.629,17.450 C43.629,17.450 44.069,17.450 44.069,17.450 L44.069,19.606 C44.069,19.606 42.859,19.606 42.859,19.606 C42.023,19.606 41.495,18.902 41.253,17.516 zM39.162,19.958 L36.918,19.958 L36.918,9.551 L31.857,9.551 L31.857,7.482 L36.918,7.482 L36.918,4.402 L34.806,4.402 C34.806,4.402 34.784,4.490 34.784,4.490 C34.520,5.458 33.926,5.942 32.979,5.942 C32.979,5.942 31.769,5.942 31.769,5.942 L31.769,3.962 C31.769,3.962 32.275,3.962 32.275,3.962 C32.473,3.962 32.649,3.764 32.781,3.346 C32.781,3.346 33.485,0.353 33.485,0.353 L35.730,0.353 L35.268,2.334 L36.918,2.334 L36.918,0.089 L39.162,0.089 L39.162,2.334 L43.211,2.334 L43.211,4.402 L39.162,4.402 L39.162,7.482 L43.893,7.482 L43.893,9.551 L39.162,9.551 L39.162,19.958 zM27.127,13.423 C27.171,13.775 27.347,13.929 27.655,13.929 C27.655,13.929 28.425,13.929 28.425,13.929 L28.425,15.998 C28.425,15.998 26.621,15.998 26.621,15.998 C25.916,15.998 25.498,15.624 25.322,14.876 C25.322,14.876 24.464,10.497 24.464,10.497 L26.621,10.497 C26.621,10.497 27.127,13.423 27.127,13.423 zM27.457,5.678 L31.175,5.678 C31.175,5.678 31.175,18.396 31.175,18.396 C31.175,19.188 30.735,19.606 29.877,19.606 C29.877,19.606 24.376,19.606 24.376,19.606 L24.376,17.538 C24.376,17.538 28.667,17.538 28.667,17.538 C28.887,17.538 29.019,17.428 29.019,17.208 C29.019,17.208 29.019,7.747 29.019,7.747 L27.171,7.747 C27.171,7.747 27.083,8.363 27.083,8.363 C26.951,9.221 26.577,9.639 26.004,9.639 C26.004,9.639 23.958,9.639 23.958,9.639 L23.958,7.923 C23.958,7.923 24.640,7.923 24.640,7.923 C24.904,7.923 25.058,7.659 25.102,7.108 C25.102,7.108 25.740,3.016 25.740,3.016 L24.112,3.016 L24.112,0.948 L31.505,0.948 L31.505,3.016 L27.831,3.016 L27.457,5.678 zM18.989,17.626 C18.989,18.242 18.769,18.748 18.373,19.166 C18.065,19.518 17.603,19.694 17.008,19.694 C17.008,19.694 14.434,19.694 14.434,19.694 L14.434,17.714 C14.434,17.714 16.150,17.714 16.150,17.714 C16.414,17.714 16.568,17.406 16.568,16.768 C16.568,16.768 16.568,13.247 16.568,13.247 L9.175,13.247 L9.175,11.179 L16.568,11.179 L16.568,9.639 L18.989,9.639 L18.989,11.179 L20.881,11.179 L20.881,13.247 L18.989,13.247 C18.989,13.247 18.989,17.626 18.989,17.626 zM16.502,6.976 L20.111,6.976 L20.111,9.045 L9.967,9.045 L9.967,6.976 L14.082,6.976 L14.082,4.226 L9.439,4.226 L9.439,2.158 L14.082,2.158 L14.082,0.177 L16.502,0.177 L16.502,2.158 L20.793,2.158 L20.793,4.226 L16.502,4.226 L16.502,6.976 zM7.547,10.937 C7.547,10.937 7.547,19.958 7.547,19.958 L5.237,19.958 C5.237,19.958 5.237,13.951 5.237,13.951 C4.291,15.448 3.829,16.174 3.829,16.174 C3.344,16.812 2.442,17.120 1.100,17.120 C1.100,17.120 1.100,14.788 1.100,14.788 C1.584,14.722 1.980,14.501 2.288,14.105 C2.288,14.105 3.256,12.675 5.237,9.815 C5.237,9.815 5.237,6.030 5.237,6.030 L3.366,6.030 C3.366,6.030 3.344,6.118 3.344,6.118 C3.124,7.262 2.640,7.835 1.870,7.835 C1.870,7.835 0.924,7.835 0.924,7.835 L0.924,5.590 C0.924,5.590 1.188,5.590 1.188,5.590 C1.320,5.590 1.452,5.348 1.540,4.864 C1.540,4.864 2.046,1.212 2.046,1.212 L4.115,1.212 L3.697,3.962 L5.237,3.962 L5.237,0.177 L7.547,0.177 L7.547,3.962 L8.933,3.962 L8.933,6.030 L7.547,6.030 L7.547,8.429 L8.933,8.429 L8.933,10.849 C8.933,10.849 8.075,10.849 8.075,10.849 C7.855,10.849 7.679,10.893 7.547,10.937 zM12.366,15.822 C12.410,16.174 12.586,16.350 12.872,16.350 C12.872,16.350 14.082,16.350 14.082,16.350 L14.082,18.066 C14.082,18.066 11.860,18.066 11.860,18.066 C11.156,18.066 10.738,17.758 10.562,17.120 C10.562,17.120 9.879,13.929 9.879,13.929 L12.014,13.929 C12.014,13.929 12.366,15.822 12.366,15.822 zM33.089,16.372 C33.089,16.372 33.750,11.003 33.750,11.003 L35.972,11.003 C35.972,11.003 35.048,17.384 35.048,17.384 C34.806,18.858 34.234,19.606 33.309,19.606 C33.309,19.606 31.857,19.606 31.857,19.606 L31.857,17.450 C31.857,17.450 32.627,17.450 32.627,17.450 C32.803,17.450 32.957,17.098 33.089,16.372 z" fill="#222222" />
</svg>
