<svg version="1.1" xmlns="http://www.w3.org/2000/svg" xmlns:xlink="http://www.w3.org/1999/xlink" width="45" height="21" viewBox="0 0 45 21">
<path id="btn-prod-2-norma" d="M44.223,17.032 L44.223,18.748 L35.378,18.748 L35.378,20.046 L32.979,20.046 L32.979,18.748 L24.112,18.748 L24.112,17.032 L32.979,17.032 L32.979,15.734 L24.904,15.734 L24.904,14.193 L32.979,14.193 L32.979,13.071 L25.234,13.071 L25.234,11.531 L32.979,11.531 L32.979,10.409 L24.112,10.409 L24.112,8.693 L32.979,8.693 L32.979,7.394 L25.234,7.394 L25.234,5.854 L32.979,5.854 L32.979,4.908 C32.979,4.908 31.263,4.908 31.263,4.908 C30.823,4.908 30.449,4.600 30.141,3.984 C30.141,3.984 29.371,2.070 29.371,2.070 C29.371,2.070 28.601,2.070 28.601,2.070 C28.381,2.070 28.227,2.224 28.139,2.488 C27.545,3.588 27.259,4.116 27.259,4.116 C27.017,4.644 26.532,4.908 25.784,4.908 C25.784,4.908 24.376,4.908 24.376,4.908 C24.376,4.908 24.376,3.192 24.376,3.192 C24.904,3.192 25.256,2.972 25.454,2.532 C25.454,2.532 25.762,1.938 26.378,0.706 C26.466,0.485 26.687,0.353 27.039,0.353 C27.039,0.353 33.750,0.353 33.750,0.353 L33.750,2.070 L31.791,2.070 C31.791,2.070 31.989,2.862 31.989,2.862 C32.077,3.214 32.231,3.368 32.451,3.368 C32.451,3.368 33.750,3.368 33.750,3.368 L33.750,4.732 L34.014,4.732 C34.014,4.732 34.014,3.192 34.014,3.192 C34.542,3.192 34.916,2.972 35.114,2.532 C35.114,2.532 35.422,1.938 36.082,0.706 C36.170,0.485 36.390,0.353 36.764,0.353 C36.764,0.353 43.805,0.353 43.805,0.353 L43.805,2.070 L41.583,2.070 C41.583,2.070 41.869,2.994 41.869,2.994 C41.957,3.368 42.177,3.544 42.507,3.544 C42.507,3.544 43.893,3.544 43.893,3.544 L43.893,5.084 C43.893,5.084 41.319,5.084 41.319,5.084 C40.791,5.084 40.372,4.776 40.042,4.116 C40.042,4.116 39.118,2.070 39.118,2.070 C39.118,2.070 38.304,2.070 38.304,2.070 C38.084,2.070 37.930,2.224 37.820,2.488 C37.248,3.588 36.962,4.116 36.962,4.116 C36.698,4.644 36.192,4.908 35.444,4.908 C35.444,4.908 35.378,4.908 35.378,4.908 L35.378,5.854 L42.859,5.854 L42.859,8.693 L44.223,8.693 L44.223,10.409 L42.859,10.409 C42.859,10.409 42.859,11.707 42.859,11.707 C42.859,12.631 42.133,13.071 40.703,13.071 C40.703,13.071 35.378,13.071 35.378,13.071 L35.378,14.193 L43.453,14.193 L43.453,15.734 L35.378,15.734 L35.378,17.032 L44.223,17.032 zM40.461,7.394 L35.378,7.394 L35.378,8.693 L40.461,8.693 L40.461,7.394 zM39.844,11.531 C40.240,11.531 40.461,11.421 40.461,11.179 C40.461,11.179 40.461,10.409 40.461,10.409 L35.378,10.409 L35.378,11.531 C35.378,11.531 39.844,11.531 39.844,11.531 zM18.043,18.748 C18.043,18.748 18.043,12.565 18.043,12.565 L20.023,12.565 C20.023,12.565 20.023,17.714 20.023,17.714 C20.023,17.956 20.133,18.066 20.353,18.066 C20.353,18.066 21.057,18.066 21.057,18.066 L21.057,19.782 C21.057,19.782 19.165,19.782 19.165,19.782 C18.417,19.782 18.043,19.430 18.043,18.748 zM18.813,2.334 C18.813,2.378 18.857,2.444 18.945,2.532 C18.945,2.532 20.705,4.644 20.705,4.644 L18.307,4.644 C18.307,4.644 16.744,2.466 16.744,2.466 C16.678,2.378 16.656,2.290 16.656,2.246 C16.656,2.202 16.678,2.158 16.744,2.092 C16.744,2.092 18.461,0.265 18.461,0.265 L20.793,0.265 C20.793,0.265 18.923,2.180 18.923,2.180 C18.835,2.246 18.813,2.290 18.813,2.334 zM14.676,2.422 C14.676,2.466 14.698,2.532 14.786,2.620 C14.786,2.620 16.326,4.732 16.326,4.732 L13.906,4.732 C13.906,4.732 12.608,2.554 12.608,2.554 C12.564,2.466 12.542,2.378 12.542,2.334 C12.542,2.290 12.564,2.246 12.608,2.180 C12.608,2.180 14.082,0.265 14.082,0.265 L16.414,0.265 C16.414,0.265 14.786,2.246 14.786,2.246 C14.698,2.312 14.676,2.378 14.676,2.422 zM12.366,4.732 L9.967,4.732 C9.967,4.732 8.647,2.642 8.647,2.642 C8.603,2.554 8.581,2.466 8.581,2.422 C8.581,2.378 8.603,2.312 8.647,2.246 C8.647,2.246 10.055,0.265 10.055,0.265 L12.366,0.265 C12.366,0.265 10.826,2.312 10.826,2.312 C10.760,2.400 10.738,2.466 10.738,2.510 C10.738,2.554 10.760,2.620 10.848,2.686 C10.848,2.686 12.366,4.732 12.366,4.732 zM6.601,19.518 C6.601,19.518 0.924,19.518 0.924,19.518 L0.924,17.802 L3.851,17.802 L3.851,13.159 L1.276,13.159 L1.276,2.510 L3.675,2.510 L3.851,2.510 L3.851,0.089 L5.567,0.089 L5.567,2.510 L8.163,2.510 C8.163,2.510 8.163,11.531 8.163,11.531 C8.163,12.631 7.657,13.159 6.689,13.159 C6.689,13.159 5.567,13.159 5.567,13.159 L5.567,17.802 C5.567,17.802 6.271,17.802 6.271,17.802 C6.425,17.802 6.513,17.692 6.513,17.450 C6.513,17.450 6.513,14.369 6.513,14.369 L8.163,14.369 C8.163,14.369 8.163,17.802 8.163,17.802 C8.163,18.946 7.635,19.518 6.601,19.518 zM3.851,4.314 L2.992,4.314 L2.992,11.355 L3.675,11.355 L3.851,11.355 L3.851,4.314 zM6.095,11.355 C6.315,11.355 6.425,11.223 6.425,10.937 C6.425,10.937 6.425,4.314 6.425,4.314 L5.567,4.314 L5.567,11.355 C5.567,11.355 6.095,11.355 6.095,11.355 zM20.617,10.761 C20.617,11.619 20.089,12.037 19.077,12.037 C19.077,12.037 8.845,12.037 8.845,12.037 L8.845,5.436 L20.617,5.436 C20.617,5.436 20.617,10.761 20.617,10.761 zM18.549,6.888 L16.150,6.888 C16.150,6.888 17.184,8.099 17.184,8.099 C17.316,8.209 17.559,8.253 17.867,8.253 C17.867,8.253 18.219,8.253 18.219,8.253 L18.219,9.551 C18.219,9.551 16.832,9.551 16.832,9.551 C16.524,9.551 16.260,9.507 16.062,9.375 C16.062,9.375 14.764,7.923 14.764,7.923 C14.764,7.923 13.576,9.375 13.576,9.375 C13.356,9.507 13.114,9.551 12.806,9.551 C12.806,9.551 11.332,9.551 11.332,9.551 L11.332,8.253 C11.332,8.253 11.772,8.253 11.772,8.253 C12.080,8.253 12.300,8.231 12.454,8.187 C12.454,8.187 13.554,6.888 13.554,6.888 L10.914,6.888 L10.914,10.585 C10.914,10.585 18.043,10.585 18.043,10.585 C18.373,10.585 18.549,10.431 18.549,10.079 C18.549,10.079 18.549,6.888 18.549,6.888 zM10.826,13.247 L12.630,13.247 L12.630,14.700 L10.826,14.700 L10.826,15.734 L12.630,15.734 L12.630,17.208 L10.826,17.208 C10.826,17.208 10.826,17.978 10.826,17.978 C10.826,18.198 10.936,18.330 11.156,18.330 C11.156,18.330 12.806,18.330 12.806,18.330 L12.806,19.870 C12.806,19.870 9.967,19.870 9.967,19.870 C9.219,19.870 8.845,19.540 8.845,18.924 C8.845,18.924 8.845,12.565 8.845,12.565 L10.826,12.565 L10.826,13.247 zM15.380,13.247 L17.272,13.247 L17.272,14.700 L15.380,14.700 L15.380,15.734 L17.272,15.734 L17.272,17.208 L15.380,17.208 C15.380,17.208 15.380,17.978 15.380,17.978 C15.380,18.198 15.490,18.330 15.710,18.330 C15.710,18.330 17.515,18.330 17.515,18.330 L17.515,19.870 C17.515,19.870 14.522,19.870 14.522,19.870 C13.774,19.870 13.400,19.540 13.400,18.924 C13.400,18.924 13.400,12.565 13.400,12.565 L15.380,12.565 L15.380,13.247 z" fill="#222222" />
</svg>
