<svg version="1.1" xmlns="http://www.w3.org/2000/svg" xmlns:xlink="http://www.w3.org/1999/xlink" width="90" height="21" viewBox="0 0 90 21">
<path id="btn-prod-3-activ" d="M87.673,19.254 C87.673,19.254 81.226,19.254 81.226,19.254 L81.226,10.849 L89.411,10.849 C89.411,10.849 89.411,17.802 89.411,17.802 C89.411,18.770 88.817,19.254 87.673,19.254 zM86.991,12.895 L83.558,12.895 L83.558,17.208 C83.558,17.208 86.396,17.208 86.396,17.208 C86.793,17.208 86.991,17.032 86.991,16.680 C86.991,16.680 86.991,12.895 86.991,12.895 zM87.079,9.045 C87.079,9.045 72.050,9.045 72.050,9.045 L72.050,1.124 L88.883,1.124 C88.883,1.124 88.883,7.394 88.883,7.394 C88.883,8.495 88.267,9.045 87.079,9.045 zM86.484,3.280 L74.449,3.280 L74.449,6.888 C74.449,6.888 85.802,6.888 85.802,6.888 C86.242,6.888 86.484,6.690 86.484,6.294 C86.484,6.294 86.484,3.280 86.484,3.280 zM79.421,17.802 C79.421,18.770 78.849,19.254 77.705,19.254 C77.705,19.254 71.258,19.254 71.258,19.254 L71.258,10.849 L79.421,10.849 C79.421,10.849 79.421,17.802 79.421,17.802 zM77.023,12.895 L73.591,12.895 L73.591,17.208 C73.591,17.208 76.429,17.208 76.429,17.208 C76.825,17.208 77.023,17.032 77.023,16.680 C77.023,16.680 77.023,12.895 77.023,12.895 zM64.507,19.430 C64.507,19.430 60.810,19.430 60.810,19.430 L60.810,17.538 C60.810,17.538 63.318,17.538 63.318,17.538 C63.869,17.538 64.155,17.494 64.155,17.384 C64.155,17.384 64.155,14.105 64.155,14.105 L58.830,14.105 L58.830,19.518 L56.321,19.518 L56.321,14.105 L51.173,14.105 C51.173,14.105 51.173,17.450 51.173,17.450 C51.173,19.056 50.359,19.870 48.774,19.870 C48.774,19.870 47.476,19.870 47.476,19.870 L47.476,17.978 C47.476,17.978 48.246,17.978 48.246,17.978 C48.598,17.978 48.774,17.802 48.774,17.450 C48.774,17.450 48.774,0.617 48.774,0.617 L54.693,0.617 L66.553,0.617 C66.553,0.617 66.553,17.802 66.553,17.802 C66.553,18.880 65.871,19.430 64.507,19.430 zM56.321,2.598 L51.173,2.598 L51.173,6.294 L56.321,6.294 L56.321,2.598 zM56.321,8.253 L51.173,8.253 L51.173,12.125 L56.321,12.125 L56.321,8.253 zM64.155,2.598 L58.830,2.598 L58.830,6.294 L64.155,6.294 L64.155,2.598 zM64.155,8.253 L58.830,8.253 L58.830,12.125 L64.155,12.125 L64.155,8.253 zM41.407,19.782 C41.407,19.782 25.146,19.782 25.146,19.782 L25.146,0.441 L43.035,0.441 C43.035,0.441 43.035,18.572 43.035,18.572 C43.035,19.364 42.485,19.782 41.407,19.782 zM40.879,2.070 L27.303,2.070 L27.303,18.066 C27.303,18.066 40.284,18.066 40.284,18.066 C40.681,18.066 40.879,17.934 40.879,17.626 C40.879,17.626 40.879,2.070 40.879,2.070 zM28.073,7.152 L32.891,7.152 L32.891,6.206 L29.371,6.206 L29.371,2.928 L38.810,2.928 C38.810,2.928 38.810,5.260 38.810,5.260 C38.810,5.898 38.480,6.206 37.864,6.206 C37.864,6.206 34.960,6.206 34.960,6.206 L34.960,7.152 L40.020,7.152 L40.020,8.605 L28.073,8.605 L28.073,7.152 zM36.588,4.996 C36.698,4.996 36.764,4.952 36.764,4.864 C36.764,4.864 36.764,4.138 36.764,4.138 L31.417,4.138 L31.417,4.996 C31.417,4.996 36.588,4.996 36.588,4.996 zM39.514,16.086 C39.514,16.790 39.162,17.120 38.480,17.120 C38.480,17.120 28.667,17.120 28.667,17.120 L28.667,9.551 L39.514,9.551 C39.514,9.551 39.514,16.086 39.514,16.086 zM37.446,10.937 L30.735,10.937 L30.735,15.734 C30.735,15.734 37.182,15.734 37.182,15.734 C37.358,15.734 37.446,15.514 37.446,15.030 C37.446,15.030 37.446,10.937 37.446,10.937 zM35.730,14.788 C35.730,14.788 31.945,14.788 31.945,14.788 L31.945,11.883 L36.412,11.883 C36.412,11.883 36.412,14.017 36.412,14.017 C36.412,14.546 36.170,14.788 35.730,14.788 zM34.960,12.895 L33.397,12.895 L33.397,13.753 C33.397,13.753 34.784,13.753 34.784,13.753 C34.894,13.753 34.960,13.731 34.960,13.643 C34.960,13.643 34.960,12.895 34.960,12.895 zM19.583,5.084 L9.879,5.084 L9.879,3.698 L8.163,3.698 L8.163,2.730 L3.521,8.517 C3.521,8.517 6.095,8.517 6.095,8.517 C6.271,8.517 6.359,8.407 6.359,8.187 C6.359,8.187 6.359,6.118 6.359,6.118 L8.075,6.118 C8.075,6.118 8.075,8.957 8.075,8.957 C8.075,9.243 7.943,9.529 7.723,9.815 C7.437,10.167 7.085,10.321 6.689,10.321 C6.689,10.321 5.567,10.321 5.567,10.321 L5.567,20.134 L3.851,20.134 L3.851,10.321 L1.188,10.321 C1.188,10.321 1.188,8.957 1.188,8.957 C1.188,8.715 1.386,8.363 1.826,7.923 C1.826,7.923 4.027,5.172 4.027,5.172 L1.276,5.172 C1.276,5.172 1.276,3.698 1.276,3.698 C1.276,3.566 1.320,3.434 1.452,3.302 C1.452,3.302 3.939,0.001 3.939,0.001 L6.095,0.001 L3.432,3.456 L5.413,3.456 L6.865,1.652 L9.021,1.652 L8.757,1.982 C8.757,1.982 9.439,1.982 9.439,1.982 C9.659,1.982 9.901,1.872 10.121,1.608 C10.121,1.608 11.332,0.529 11.332,0.529 L18.043,0.529 C18.043,0.529 19.187,1.608 19.187,1.608 C19.385,1.872 19.605,1.982 19.847,1.982 C19.847,1.982 20.969,1.982 20.969,1.982 L20.969,3.698 L19.583,3.698 L19.583,5.084 zM18.219,3.368 C18.219,3.368 16.920,2.246 16.920,2.246 L12.454,2.246 C12.454,2.246 11.112,3.368 11.112,3.368 C11.068,3.412 11.024,3.456 10.980,3.456 C10.980,3.456 18.351,3.456 18.351,3.456 C18.285,3.434 18.241,3.412 18.219,3.368 zM1.870,11.443 L3.521,11.443 C3.521,11.443 2.860,17.428 2.860,17.428 C2.684,18.814 2.288,19.518 1.628,19.518 C1.628,19.518 0.858,19.518 0.858,19.518 L0.858,17.450 C0.858,17.450 1.100,17.450 1.100,17.450 C1.232,17.450 1.342,17.120 1.430,16.438 C1.430,16.438 1.870,11.443 1.870,11.443 zM8.163,16.680 C8.207,17.098 8.317,17.296 8.493,17.296 C8.493,17.296 8.933,17.296 8.933,17.296 L8.933,19.100 C8.933,19.100 7.635,19.100 7.635,19.100 C7.019,19.100 6.689,18.572 6.601,17.538 C6.601,17.538 6.007,11.531 6.007,11.531 L7.547,11.531 C7.547,11.531 8.163,16.680 8.163,16.680 zM20.265,11.003 C20.265,11.751 19.781,12.125 18.813,12.125 C18.813,12.125 9.021,12.125 9.021,12.125 L9.021,6.030 L20.265,6.030 C20.265,6.030 20.265,11.003 20.265,11.003 zM13.752,7.570 L11.002,7.570 L11.002,10.585 L13.752,10.585 L13.752,7.570 zM18.219,7.570 L15.556,7.570 L15.556,10.585 C15.556,10.585 17.691,10.585 17.691,10.585 C18.043,10.585 18.219,10.453 18.219,10.145 C18.219,10.145 18.219,7.570 18.219,7.570 zM15.798,9.991 L16.502,8.341 L17.955,8.341 L17.272,9.991 L15.798,9.991 zM13.576,9.991 L12.102,9.991 L11.420,8.341 L12.872,8.341 L13.576,9.991 zM19.847,18.484 C19.847,19.342 19.341,19.782 18.373,19.782 C18.373,19.782 9.439,19.782 9.439,19.782 L9.439,12.983 L19.847,12.983 C19.847,12.983 19.847,18.484 19.847,18.484 zM17.779,14.546 L11.508,14.546 L11.508,15.580 L17.779,15.580 L17.779,14.546 zM17.779,17.120 L11.508,17.120 L11.508,18.242 C11.508,18.242 17.361,18.242 17.361,18.242 C17.625,18.242 17.779,18.066 17.779,17.714 C17.779,17.714 17.779,17.120 17.779,17.120 z" fill="#ED1C24" />
</svg>
