<svg version="1.1" xmlns="http://www.w3.org/2000/svg" xmlns:xlink="http://www.w3.org/1999/xlink" width="216" height="30" viewBox="0 0 216 30">
<path id="text-thanks" d="M213.420,28.695 C213.420,28.695 204.044,28.695 204.044,28.695 L204.044,16.471 L215.948,16.471 C215.948,16.471 215.948,26.583 215.948,26.583 C215.948,27.991 215.084,28.695 213.420,28.695 zM212.428,19.447 L207.436,19.447 L207.436,25.719 C207.436,25.719 211.564,25.719 211.564,25.719 C212.140,25.719 212.428,25.463 212.428,24.951 C212.428,24.951 212.428,19.447 212.428,19.447 zM212.556,13.847 C212.556,13.847 190.699,13.847 190.699,13.847 L190.699,2.326 L215.180,2.326 C215.180,2.326 215.180,11.447 215.180,11.447 C215.180,13.047 214.284,13.847 212.556,13.847 zM211.692,5.462 L194.187,5.462 L194.187,10.711 C194.187,10.711 210.700,10.711 210.700,10.711 C211.340,10.711 211.692,10.423 211.692,9.847 C211.692,9.847 211.692,5.462 211.692,5.462 zM201.420,26.583 C201.420,27.991 200.588,28.695 198.924,28.695 C198.924,28.695 189.547,28.695 189.547,28.695 L189.547,16.471 L201.420,16.471 C201.420,16.471 201.420,26.583 201.420,26.583 zM197.931,19.447 L192.939,19.447 L192.939,25.719 C192.939,25.719 197.067,25.719 197.067,25.719 C197.643,25.719 197.931,25.463 197.931,24.951 C197.931,24.951 197.931,19.447 197.931,19.447 zM157.362,2.454 L169.235,2.454 L169.235,0.470 L173.235,0.470 L173.235,2.454 L185.491,2.454 L185.491,5.462 L157.362,5.462 L157.362,2.454 zM153.658,27.351 C153.658,28.759 152.698,29.463 150.810,29.463 C150.810,29.463 146.042,29.463 146.042,29.463 L146.042,27.223 C146.042,27.223 150.170,27.223 150.170,27.223 C150.490,27.223 150.682,27.031 150.682,26.711 C150.682,26.711 150.682,25.335 150.682,25.335 L142.042,25.335 L142.042,29.719 L139.034,29.719 L139.034,25.335 L137.562,25.335 L137.562,22.839 L139.034,22.839 L139.034,14.327 L144.922,14.327 L144.922,12.599 L137.786,12.599 L137.786,10.199 L141.178,10.199 L141.178,8.342 L138.682,8.342 L138.682,6.198 L141.178,6.198 L141.178,4.342 L138.298,4.342 L138.298,2.198 L141.178,2.198 L141.178,0.598 L144.058,0.598 L144.058,2.198 L149.050,2.198 L149.050,0.598 L151.930,0.598 L151.930,2.198 L154.298,2.198 L154.298,4.342 L151.930,4.342 L151.930,6.198 L154.042,6.198 L154.042,8.342 L151.930,8.342 L151.930,10.199 L154.938,10.199 L154.938,12.599 L147.930,12.599 L147.930,14.327 L153.658,14.327 L153.658,22.839 L155.034,22.839 L155.034,25.335 L153.658,25.335 C153.658,25.335 153.658,27.351 153.658,27.351 zM142.042,22.839 L144.922,22.839 L144.922,20.823 L142.042,20.823 L142.042,22.839 zM142.042,16.599 L142.042,18.711 L144.922,18.711 L144.922,16.599 L142.042,16.599 zM149.050,4.342 L144.058,4.342 L144.058,6.198 L149.050,6.198 L149.050,4.342 zM149.050,10.199 L149.050,8.342 L144.058,8.342 L144.058,10.199 L149.050,10.199 zM150.682,16.599 L147.930,16.599 L147.930,18.711 L150.682,18.711 L150.682,16.599 zM150.682,20.823 L147.930,20.823 L147.930,22.839 L150.682,22.839 L150.682,20.823 zM138.042,28.823 C138.042,28.823 136.058,28.823 136.058,28.823 C135.066,28.823 134.426,28.375 134.138,27.511 C134.138,27.511 132.794,23.447 132.794,23.447 L135.674,23.447 C135.674,23.447 136.602,25.975 136.602,25.975 C136.730,26.295 136.922,26.455 137.178,26.455 C137.178,26.455 138.042,26.455 138.042,26.455 L138.042,28.823 zM134.810,21.975 C134.810,21.975 127.417,21.975 127.417,21.975 L127.417,1.718 L136.794,1.718 C136.794,1.718 136.794,20.087 136.794,20.087 C136.794,21.367 136.122,21.975 134.810,21.975 zM134.170,4.342 L130.169,4.342 L130.169,7.702 L134.170,7.702 L134.170,4.342 zM134.170,10.199 L130.169,10.199 L130.169,13.591 L134.170,13.591 L134.170,10.199 zM134.170,16.087 L130.169,16.087 L130.169,19.447 C130.169,19.447 133.434,19.447 133.434,19.447 C133.914,19.447 134.170,19.223 134.170,18.711 C134.170,18.711 134.170,16.087 134.170,16.087 zM128.793,23.447 L131.673,23.447 C131.673,23.447 129.913,27.479 129.913,27.479 C129.529,28.375 128.921,28.823 128.057,28.823 C128.057,28.823 125.913,28.823 125.913,28.823 L125.913,26.327 C125.913,26.327 126.937,26.327 126.937,26.327 C127.321,26.327 127.641,26.103 127.833,25.655 C127.833,25.655 128.793,23.447 128.793,23.447 zM120.993,26.583 C120.993,28.407 119.905,29.335 117.729,29.335 C117.729,29.335 110.721,29.335 110.721,29.335 L110.721,26.455 C110.721,26.455 116.993,26.455 116.993,26.455 C117.377,26.455 117.601,26.295 117.601,25.975 C117.601,25.975 117.601,4.950 117.601,4.950 L109.345,4.950 L109.345,1.974 L123.361,1.974 L123.361,4.950 L120.993,4.950 C120.993,4.950 120.993,26.583 120.993,26.583 zM94.720,5.718 L109.121,5.718 L109.121,8.599 L94.720,8.599 L94.720,5.718 zM96.352,1.334 L107.489,1.334 L107.489,3.958 L96.352,3.958 L96.352,1.334 zM87.016,26.743 C87.016,26.743 85.160,19.095 85.160,19.095 L88.648,19.095 C88.648,19.095 90.056,25.175 90.056,25.175 C90.216,25.943 90.504,26.327 90.920,26.327 C90.920,26.327 92.424,26.327 92.424,26.327 L92.424,29.207 C92.424,29.207 89.672,29.207 89.672,29.207 C88.328,29.207 87.432,28.375 87.016,26.743 zM87.208,15.447 C87.208,15.447 85.544,8.471 85.544,8.471 L88.904,8.471 C88.904,8.471 90.088,13.815 90.088,13.815 C90.216,14.519 90.472,14.839 90.792,14.839 C90.792,14.839 92.168,14.839 92.168,14.839 L92.168,17.719 C92.168,17.719 89.544,17.719 89.544,17.719 C88.328,17.719 87.560,16.983 87.208,15.447 zM90.664,7.574 L87.048,7.574 L87.656,5.078 L75.848,5.078 C75.848,5.078 75.688,5.622 75.688,5.622 C75.336,6.774 74.504,7.350 73.160,7.350 C73.160,7.350 70.792,7.350 70.792,7.350 L70.792,4.470 C70.792,4.470 72.040,4.470 72.040,4.470 C72.296,4.470 72.488,4.278 72.648,3.830 C72.648,3.830 73.544,0.694 73.544,0.694 L77.032,0.694 L76.616,2.198 L91.656,2.198 L90.664,7.574 zM69.416,18.327 L65.927,18.327 L65.927,8.086 L63.527,8.086 L63.527,5.078 C63.527,5.078 65.799,5.078 65.799,5.078 C66.087,5.078 66.343,4.854 66.535,4.406 C66.535,4.406 68.040,0.950 68.040,0.950 L71.912,0.950 L69.416,6.134 L69.416,18.327 zM59.343,27.703 C59.343,28.791 58.703,29.335 57.455,29.335 C57.455,29.335 52.975,29.335 52.975,29.335 L52.975,26.583 C52.975,26.583 55.727,26.583 55.727,26.583 C56.047,26.583 56.207,26.423 56.207,26.071 C56.207,26.071 56.207,21.719 56.207,21.719 C56.207,21.719 54.959,21.719 54.959,21.719 C53.935,21.719 53.295,20.823 52.975,18.967 C52.975,18.967 51.599,10.455 51.599,10.455 L54.095,10.455 C54.095,10.455 55.183,17.495 55.183,17.495 C55.311,18.391 55.535,18.839 55.855,18.839 C55.855,18.839 56.207,18.839 56.207,18.839 L56.207,7.702 L51.727,7.702 L51.727,4.950 L56.207,4.950 L56.207,0.950 L59.343,0.950 L59.343,4.950 L61.104,4.950 L61.104,7.702 L59.343,7.702 C59.343,7.702 59.343,27.703 59.343,27.703 zM48.847,29.335 C48.847,29.335 44.975,29.335 44.975,29.335 L44.975,26.839 C44.975,26.839 47.215,26.839 47.215,26.839 C47.471,26.839 47.599,26.679 47.599,26.327 C47.599,26.327 47.599,19.095 47.599,19.095 L41.103,19.095 L41.103,16.343 L42.351,16.343 L42.351,2.966 L44.047,2.966 L44.591,0.950 L47.983,0.950 L47.407,2.966 L50.607,2.966 C50.607,2.966 50.607,27.831 50.607,27.831 C50.607,28.823 49.999,29.335 48.847,29.335 zM47.599,5.462 L45.231,5.462 L45.231,7.702 L47.599,7.702 L47.599,5.462 zM47.599,9.975 L45.231,9.975 L45.231,11.959 L47.599,11.959 L47.599,9.975 zM47.599,14.199 L45.231,14.199 L45.231,16.343 L47.599,16.343 L47.599,14.199 zM42.127,25.271 C42.127,25.271 42.735,20.087 42.735,20.087 L45.711,20.087 C45.711,20.087 44.687,26.583 44.687,26.583 C44.399,28.055 43.759,28.823 42.735,28.823 C42.735,28.823 40.975,28.823 40.975,28.823 L40.975,26.327 C40.975,26.327 41.711,26.327 41.711,26.327 C41.871,26.327 41.999,25.975 42.127,25.271 zM32.462,5.718 L40.975,5.718 L40.975,8.214 L32.462,8.214 L32.462,5.718 zM32.718,1.590 L40.591,1.590 L40.591,3.958 L32.718,3.958 L32.718,1.590 zM25.142,16.087 C25.142,16.087 25.526,16.087 25.526,16.087 C25.846,16.087 26.038,15.927 26.038,15.575 C26.038,15.575 26.038,7.350 26.038,7.350 L28.791,7.350 C28.791,7.350 28.791,16.215 28.791,16.215 C28.791,17.975 27.894,18.839 26.166,18.839 C26.166,18.839 25.718,18.839 25.718,18.839 C25.718,18.839 27.158,25.463 27.158,25.463 C27.222,26.039 27.478,26.327 27.894,26.327 C27.894,26.327 29.783,26.327 29.783,26.327 L29.783,29.079 C29.783,29.079 26.038,29.079 26.038,29.079 C24.790,29.079 24.086,28.279 23.894,26.711 C23.894,26.711 22.294,18.839 22.294,18.839 L19.030,18.839 L19.030,16.087 L21.718,16.087 L19.574,5.718 L5.782,5.718 C5.782,5.718 5.782,25.591 5.782,25.591 C5.782,27.735 4.694,28.823 2.518,28.823 C2.518,28.823 0.885,28.823 0.885,28.823 L0.885,26.071 C0.885,26.071 1.910,26.071 1.910,26.071 C2.294,26.071 2.518,25.847 2.518,25.335 C2.518,25.335 2.518,3.094 2.518,3.094 L19.030,3.094 L18.518,0.598 L21.782,0.598 L22.326,3.094 L24.758,3.094 L24.278,0.822 L27.638,0.822 L28.118,3.094 L29.911,3.094 L29.911,5.718 L22.902,5.718 L25.142,16.087 zM6.838,25.431 C6.838,25.431 7.286,20.343 7.286,20.343 L10.166,20.343 C10.166,20.343 9.206,26.903 9.206,26.903 C8.950,28.439 8.374,29.207 7.414,29.207 C7.414,29.207 5.782,29.207 5.782,29.207 L5.782,26.455 C5.782,26.455 6.518,26.455 6.518,26.455 C6.646,26.455 6.742,26.135 6.838,25.431 zM18.518,24.599 C18.518,24.599 16.150,24.599 16.150,24.599 C14.966,24.599 14.390,24.151 14.390,23.223 C14.390,23.223 14.390,20.343 14.390,20.343 L17.398,20.343 C17.398,20.343 17.398,21.847 17.398,21.847 C17.398,22.103 17.558,22.199 17.910,22.199 C17.910,22.199 18.518,22.199 18.518,22.199 L18.518,24.599 zM16.022,18.711 C16.022,18.711 7.638,18.711 7.638,18.711 L7.638,11.831 L18.038,11.831 C18.038,11.831 18.038,16.823 18.038,16.823 C18.038,18.103 17.366,18.711 16.022,18.711 zM15.158,13.975 L10.518,13.975 L10.518,16.599 C10.518,16.599 14.518,16.599 14.518,16.599 C14.934,16.599 15.158,16.343 15.158,15.831 C15.158,15.831 15.158,13.975 15.158,13.975 zM7.158,7.574 L18.518,7.574 L18.518,9.975 L7.158,9.975 L7.158,7.574 zM13.654,25.719 C13.654,26.231 13.942,26.455 14.518,26.455 C14.518,26.455 19.414,26.455 19.414,26.455 L19.414,29.207 C19.414,29.207 13.654,29.207 13.654,29.207 C11.542,29.207 10.518,28.279 10.518,26.455 C10.518,26.455 10.518,20.343 10.518,20.343 L13.654,20.343 C13.654,20.343 13.654,25.719 13.654,25.719 zM21.654,20.471 C21.654,20.471 22.774,25.719 22.774,25.719 C22.838,26.231 23.062,26.455 23.414,26.455 C23.414,26.455 23.766,26.455 23.766,26.455 L23.766,29.207 C23.766,29.207 22.038,29.207 22.038,29.207 C21.078,29.207 20.502,28.695 20.278,27.703 C20.278,27.703 18.646,20.471 18.646,20.471 L21.654,20.471 zM40.719,12.695 L32.590,12.695 L32.590,10.199 L40.719,10.199 L40.719,12.695 zM40.719,17.079 L32.590,17.079 L32.590,14.583 L40.719,14.583 L40.719,17.079 zM40.591,27.447 C40.591,28.695 39.919,29.335 38.607,29.335 C38.607,29.335 32.718,29.335 32.718,29.335 L32.718,18.967 L40.591,18.967 C40.591,18.967 40.591,27.447 40.591,27.447 zM37.839,21.463 L35.471,21.463 L35.471,26.839 C35.471,26.839 37.103,26.839 37.103,26.839 C37.583,26.839 37.839,26.583 37.839,26.071 C37.839,26.071 37.839,21.463 37.839,21.463 zM65.895,25.367 C65.895,25.367 66.792,19.447 66.792,19.447 L69.928,19.447 C69.928,19.447 68.840,27.063 68.840,27.063 C68.616,28.471 67.976,29.207 66.920,29.207 C66.920,29.207 63.527,29.207 63.527,29.207 L63.527,26.327 C63.527,26.327 65.031,26.327 65.031,26.327 C65.447,26.327 65.735,26.007 65.895,25.367 zM73.192,13.751 C73.192,13.751 74.280,8.471 74.280,8.471 L77.416,8.471 C77.416,8.471 76.040,15.319 76.040,15.319 C75.656,16.919 74.792,17.719 73.416,17.719 C73.416,17.719 70.920,17.719 70.920,17.719 L70.920,14.839 C70.920,14.839 72.424,14.839 72.424,14.839 C72.712,14.839 72.968,14.487 73.192,13.751 zM84.552,24.215 C84.552,24.215 80.168,24.215 80.168,24.215 C78.888,24.215 78.280,23.735 78.280,22.711 C78.280,22.711 78.280,19.223 78.280,19.223 L81.416,19.223 C81.416,19.223 81.416,21.207 81.416,21.207 C81.416,21.559 81.608,21.719 82.024,21.719 C82.024,21.719 84.552,21.719 84.552,21.719 L84.552,24.215 zM83.272,6.582 C83.272,6.582 83.272,16.215 83.272,16.215 C83.272,17.303 82.600,17.847 81.288,17.847 C81.288,17.847 77.544,17.847 77.544,17.847 L77.544,15.095 C77.544,15.095 79.400,15.095 79.400,15.095 C79.720,15.095 79.912,14.935 79.912,14.583 C79.912,14.583 79.912,6.582 79.912,6.582 L83.272,6.582 zM75.784,25.847 C75.784,26.167 76.040,26.327 76.552,26.327 C76.552,26.327 85.288,26.327 85.288,26.327 L85.288,29.079 C85.288,29.079 74.408,29.079 74.408,29.079 C73.000,29.079 72.296,28.535 72.296,27.447 C72.296,27.447 72.296,19.223 72.296,19.223 L75.784,19.223 C75.784,19.223 75.784,25.847 75.784,25.847 zM108.225,13.079 L95.488,13.079 L95.488,10.455 L108.225,10.455 L108.225,13.079 zM108.225,17.591 L95.488,17.591 L95.488,14.967 L108.225,14.967 L108.225,17.591 zM107.841,27.095 C107.841,28.407 107.137,29.079 105.729,29.079 C105.729,29.079 95.968,29.079 95.968,29.079 L95.968,19.575 L107.841,19.575 C107.841,19.575 107.841,27.095 107.841,27.095 zM104.993,22.199 L98.976,22.199 L98.976,26.455 C98.976,26.455 104.225,26.455 104.225,26.455 C104.737,26.455 104.993,26.231 104.993,25.719 C104.993,25.719 104.993,22.199 104.993,22.199 zM162.354,6.326 L165.875,6.326 L166.931,9.591 L176.531,9.591 L177.875,6.326 L181.491,6.326 L180.147,9.591 L184.499,9.591 C184.499,9.591 184.499,26.327 184.499,26.327 C184.499,27.223 184.211,27.959 183.667,28.567 C183.219,29.079 182.579,29.335 181.747,29.335 C181.747,29.335 178.131,29.335 178.131,29.335 C178.131,29.335 178.131,27.383 178.131,27.383 C177.747,27.671 177.267,27.831 176.627,27.831 C176.627,27.831 163.858,27.831 163.858,27.831 L163.858,19.575 L178.867,19.575 C178.867,19.575 178.867,25.463 178.867,25.463 C178.867,25.911 178.803,26.295 178.675,26.583 C178.675,26.583 180.499,26.583 180.499,26.583 C180.883,26.583 181.107,26.135 181.107,25.207 C181.107,25.207 181.107,12.471 181.107,12.471 L176.115,12.471 C176.115,12.471 176.115,14.711 176.115,14.711 C176.115,15.063 176.307,15.223 176.755,15.223 C176.755,15.223 179.987,15.223 179.987,15.223 L179.987,17.847 C179.987,17.847 174.867,17.847 174.867,17.847 C173.683,17.847 173.107,17.367 173.107,16.343 C173.107,16.343 173.107,12.471 173.107,12.471 L169.619,12.471 C169.619,12.471 169.619,16.087 169.619,16.087 C169.619,17.111 169.011,17.591 167.859,17.591 C167.859,17.591 162.994,17.591 162.994,17.591 L162.994,14.967 C162.994,14.967 166.131,14.967 166.131,14.967 C166.451,14.967 166.611,14.807 166.611,14.455 C166.611,14.455 166.611,12.471 166.611,12.471 L161.746,12.471 L161.746,29.719 L158.354,29.719 L158.354,9.591 L163.410,9.591 L162.354,6.326 zM175.731,22.327 L166.995,22.327 L166.995,25.079 C166.995,25.079 174.995,25.079 174.995,25.079 C175.475,25.079 175.731,24.791 175.731,24.215 C175.731,24.215 175.731,22.327 175.731,22.327 z" fill="#ED1C24" />
</svg>
