<svg version="1.1" xmlns="http://www.w3.org/2000/svg" xmlns:xlink="http://www.w3.org/1999/xlink" width="123" height="30" viewBox="0 0 123 30">
<path id="title-order-sear" d="M122.383,26.839 C122.383,28.503 121.423,29.335 119.535,29.335 C119.535,29.335 117.007,29.335 117.007,29.335 L117.007,26.583 C117.007,26.583 118.383,26.583 118.383,26.583 C118.895,26.583 119.151,26.391 119.151,25.975 C119.151,25.975 119.151,5.846 119.151,5.846 L111.054,5.846 C111.054,5.846 110.958,6.102 110.958,6.102 C110.510,7.254 109.806,7.830 108.782,7.830 C108.782,7.830 106.510,7.830 106.510,7.830 L106.510,4.950 C106.510,4.950 107.406,4.950 107.406,4.950 C107.854,4.950 108.206,4.662 108.398,4.022 C108.398,4.022 109.518,0.950 109.518,0.950 L113.006,0.950 L112.238,2.838 L122.383,2.838 C122.383,2.838 122.383,26.839 122.383,26.839 zM94.638,5.462 L106.158,5.462 L106.158,8.342 L94.638,8.342 L94.638,5.462 zM95.406,1.334 L105.518,1.334 L105.518,3.830 L95.406,3.830 L95.406,1.334 zM63.317,26.583 L92.086,26.583 L92.086,29.335 L63.317,29.335 L63.317,26.583 zM63.957,8.342 C63.957,8.342 68.085,8.342 68.085,8.342 C68.309,8.342 68.469,8.214 68.597,7.958 C68.597,7.958 69.205,6.710 69.205,6.710 L72.821,6.710 C72.821,6.710 71.189,9.911 71.189,9.911 C70.837,10.615 70.261,10.967 69.461,10.967 C69.461,10.967 63.957,10.967 63.957,10.967 L63.957,8.342 zM83.830,9.911 C83.830,9.911 82.197,6.710 82.197,6.710 L85.814,6.710 C85.814,6.710 86.454,7.958 86.454,7.958 C86.582,8.214 86.806,8.342 87.190,8.342 C87.190,8.342 91.446,8.342 91.446,8.342 L91.446,10.967 C91.446,10.967 85.462,10.967 85.462,10.967 C84.822,10.967 84.278,10.615 83.830,9.911 zM87.830,24.823 C87.830,24.823 65.205,24.823 65.205,24.823 L65.205,13.079 L90.326,13.079 C90.326,13.079 90.326,22.967 90.326,22.967 C90.326,24.215 89.494,24.823 87.830,24.823 zM86.838,15.575 L68.693,15.575 L68.693,17.847 L86.838,17.847 L86.838,15.575 zM86.838,20.343 L68.693,20.343 L68.693,22.327 C68.693,22.327 85.942,22.327 85.942,22.327 C86.518,22.327 86.838,22.103 86.838,21.591 C86.838,21.591 86.838,20.343 86.838,20.343 zM79.445,11.831 L75.829,11.831 L75.829,5.462 L63.317,5.462 L63.317,2.582 L75.829,2.582 L75.829,0.598 L79.445,0.598 L79.445,2.582 L92.086,2.582 L92.086,5.462 L79.445,5.462 L79.445,11.831 zM47.868,29.975 L44.124,29.975 L44.124,27.703 L32.124,27.703 L32.124,24.695 L44.124,24.695 L44.124,22.583 L33.756,22.583 L33.756,10.839 L58.877,10.839 C58.877,10.839 58.877,20.343 58.877,20.343 C58.877,21.847 58.045,22.583 56.381,22.583 C56.381,22.583 47.868,22.583 47.868,22.583 L47.868,24.695 L60.637,24.695 L60.637,27.703 L47.868,27.703 L47.868,29.975 zM44.124,13.463 L37.244,13.463 L37.244,15.447 L44.124,15.447 L44.124,13.463 zM44.124,17.975 L37.244,17.975 L37.244,19.959 L44.124,19.959 L44.124,17.975 zM55.389,13.463 L47.868,13.463 L47.868,15.447 L55.389,15.447 L55.389,13.463 zM54.749,19.959 C55.165,19.959 55.389,19.671 55.389,19.095 C55.389,19.095 55.389,17.975 55.389,17.975 L47.868,17.975 L47.868,19.959 C47.868,19.959 54.749,19.959 54.749,19.959 zM57.245,8.951 C57.245,8.951 47.644,8.951 47.644,8.951 L47.644,1.206 L59.389,1.206 C59.389,1.206 59.389,6.838 59.389,6.838 C59.389,8.246 58.653,8.951 57.245,8.951 zM56.381,3.702 L50.620,3.702 L50.620,6.454 C50.620,6.454 55.773,6.454 55.773,6.454 C56.157,6.454 56.381,6.230 56.381,5.718 C56.381,5.718 56.381,3.702 56.381,3.702 zM43.132,8.951 C43.132,8.951 33.628,8.951 33.628,8.951 L33.628,1.206 L45.244,1.206 C45.244,1.206 45.244,6.838 45.244,6.838 C45.244,8.246 44.540,8.951 43.132,8.951 zM42.268,3.702 L36.636,3.702 L36.636,6.454 C36.636,6.454 41.628,6.454 41.628,6.454 C42.044,6.454 42.268,6.230 42.268,5.718 C42.268,5.718 42.268,3.702 42.268,3.702 zM27.204,26.583 C27.204,28.407 26.116,29.335 23.940,29.335 C23.940,29.335 16.931,29.335 16.931,29.335 L16.931,26.455 C16.931,26.455 23.204,26.455 23.204,26.455 C23.588,26.455 23.812,26.295 23.812,25.975 C23.812,25.975 23.812,4.950 23.812,4.950 L15.555,4.950 L15.555,1.974 L29.572,1.974 L29.572,4.950 L27.204,4.950 C27.204,4.950 27.204,26.583 27.204,26.583 zM0.931,5.718 L15.331,5.718 L15.331,8.599 L0.931,8.599 L0.931,5.718 zM2.563,1.334 L13.699,1.334 L13.699,3.958 L2.563,3.958 L2.563,1.334 zM14.435,13.079 L1.699,13.079 L1.699,10.455 L14.435,10.455 L14.435,13.079 zM14.435,17.591 L1.699,17.591 L1.699,14.967 L14.435,14.967 L14.435,17.591 zM14.051,27.095 C14.051,28.407 13.347,29.079 11.939,29.079 C11.939,29.079 2.179,29.079 2.179,29.079 L2.179,19.575 L14.051,19.575 C14.051,19.575 14.051,27.095 14.051,27.095 zM11.203,22.199 L5.187,22.199 L5.187,26.455 C5.187,26.455 10.435,26.455 10.435,26.455 C10.947,26.455 11.203,26.231 11.203,25.719 C11.203,25.719 11.203,22.199 11.203,22.199 zM105.646,12.951 L95.150,12.951 L95.150,10.199 L105.646,10.199 L105.646,12.951 zM105.646,17.591 L95.150,17.591 L95.150,14.839 L105.646,14.839 L105.646,17.591 zM105.262,26.839 C105.262,28.247 104.494,28.951 103.022,28.951 C103.022,28.951 95.534,28.951 95.534,28.951 L95.534,19.575 L105.262,19.575 C105.262,19.575 105.262,26.839 105.262,26.839 zM102.254,22.071 L98.510,22.071 L98.510,26.455 C98.510,26.455 101.518,26.455 101.518,26.455 C101.998,26.455 102.254,26.167 102.254,25.591 C102.254,25.591 102.254,22.071 102.254,22.071 zM116.527,25.335 C116.527,26.903 115.790,27.703 114.382,27.703 C114.382,27.703 107.278,27.703 107.278,27.703 L107.278,9.335 L116.527,9.335 C116.527,9.335 116.527,25.335 116.527,25.335 zM113.518,12.087 L110.254,12.087 L110.254,16.951 L113.518,16.951 L113.518,12.087 zM113.518,19.703 L110.254,19.703 L110.254,24.951 C110.254,24.951 112.910,24.951 112.910,24.951 C113.294,24.951 113.518,24.663 113.518,24.087 C113.518,24.087 113.518,19.703 113.518,19.703 z" fill="#ED1C24" />
</svg>
