<svg version="1.1" xmlns="http://www.w3.org/2000/svg" xmlns:xlink="http://www.w3.org/1999/xlink" width="54" height="54" viewBox="0 0 54 54">
<defs>
<filter id="icon-fx" filterUnits="userSpaceOnUse">
<feFlood flood-color="#004097" flood-opacity="1.000"/>
<feComposite operator="in" in2="SourceGraphic"/>
<feBlend mode="normal" in2="SourceGraphic" result="colorOverlay"/>
</filter>
</defs>
<g id="btn-top-normal">
<path id="btn" d="M27.000,-0.001 C41.912,-0.001 54.000,12.087 54.000,26.999 C54.000,41.911 41.912,53.999 27.000,53.999 C12.088,53.999 -0.000,41.911 -0.000,26.999 C-0.000,12.087 12.088,-0.001 27.000,-0.001 z" fill="#FFFFFF" />
<path id="icon" d="M33.634,21.006 C33.634,21.006 27.376,14.376 27.376,14.376 C27.126,14.125 26.834,14.000 26.500,14.000 C26.160,14.000 25.871,14.125 25.633,14.376 C25.633,14.376 19.366,21.006 19.366,21.006 C19.122,21.264 19.000,21.573 19.000,21.933 C19.000,22.300 19.122,22.605 19.366,22.850 C19.366,22.850 20.088,23.613 20.088,23.613 C20.319,23.871 20.608,24.000 20.954,24.000 C21.301,24.000 21.590,23.871 21.821,23.613 C21.821,23.613 26.500,18.674 26.500,18.674 C26.500,18.674 31.179,23.613 31.179,23.613 C31.410,23.871 31.699,24.000 32.046,24.000 C32.386,24.000 32.678,23.871 32.922,23.613 C32.922,23.613 33.644,22.849 33.644,22.849 C33.881,22.598 34.000,22.293 34.000,21.933 C34.000,21.573 33.878,21.264 33.634,21.006 z" fill="#000000" filter="url(#icon-fx)" />
<path id="TOP" d="M36.212,35.568 C36.212,35.568 34.769,35.568 34.769,35.568 L34.769,39.123 L33.261,39.123 L33.261,29.745 C33.261,29.745 36.160,29.745 36.160,29.745 C38.292,29.745 39.813,30.459 39.813,32.574 C39.813,34.625 38.292,35.568 36.212,35.568 zM36.017,30.930 C36.017,30.930 34.769,30.930 34.769,30.930 L34.769,34.383 C34.769,34.383 36.069,34.383 36.069,34.383 C37.603,34.383 38.331,33.810 38.331,32.574 C38.331,31.338 37.538,30.930 36.017,30.930 zM26.901,39.289 C24.444,39.289 22.741,37.416 22.741,34.396 C22.741,31.376 24.444,29.567 26.901,29.567 C29.358,29.567 31.074,31.376 31.074,34.396 C31.074,37.416 29.358,39.289 26.901,39.289 zM26.901,30.854 C25.315,30.854 24.288,32.192 24.288,34.396 C24.288,36.600 25.315,38.002 26.901,38.002 C28.487,38.002 29.527,36.600 29.527,34.396 C29.527,32.192 28.487,30.854 26.901,30.854 zM18.719,39.123 L17.211,39.123 L17.211,30.981 L14.403,30.981 L14.403,29.745 L21.540,29.745 L21.540,30.981 L18.719,30.981 L18.719,39.123 z" fill="#004097" />
</g>
</svg>
