<svg id="bag" data-name="bag" xmlns="http://www.w3.org/2000/svg" viewBox="0 0 21.5 24"><defs><style>.cls-1{fill:#fff;}</style></defs><path class="cls-1" d="M22.68,7.14a.75.75,0,0,0-.75-.71H18V5.26C18,2.91,15.74,1,13,1S8,2.91,8,5.26V6.43h-4a.75.75,0,0,0-.75.71L2.25,24.2A.75.75,0,0,0,3,25H23a.75.75,0,0,0,.75-.8ZM9.54,5.26C9.54,3.74,11.09,2.5,13,2.5s3.46,1.24,3.46,2.76V6.43H9.54ZM8,7.93V9.56a.75.75,0,1,0,1.5,0V7.93h6.92V9.56a.75.75,0,1,0,1.5,0V7.93h3.27l.65,10.4H4.12l.65-10.4ZM3.8,23.5l.26-4.17H21.94l.26,4.17Z" transform="translate(-2.25 -1)"/></svg>
