<svg id="ticket" xmlns="http://www.w3.org/2000/svg" viewBox="0 0 51.17 24.23"><defs><style>.cls-1{fill:#fff;}</style></defs><g id="ticket-outline"><path class="cls-1" d="M122,185.27V188a7.36,7.36,0,0,0,0,13.84v2.7H75.81v-2.7a7.36,7.36,0,0,0,0-13.84v-2.69H122m1.09-2.5H74.73a1.42,1.42,0,0,0-1.42,1.42v4.64a1.38,1.38,0,0,0,1.12,1.32,4.86,4.86,0,0,1,0,9.46,1.39,1.39,0,0,0-1.12,1.33v4.64A1.43,1.43,0,0,0,74.73,207h48.34a1.42,1.42,0,0,0,1.41-1.42v-4.64a1.38,1.38,0,0,0-1.11-1.33,4.86,4.86,0,0,1,0-9.46,1.37,1.37,0,0,0,1.11-1.32v-4.64a1.41,1.41,0,0,0-1.41-1.42Z" transform="translate(-73.31 -182.77)"/></g></svg>
